# ProBuilder 5.0.7
# https://unity3d.com/unity/features/worldbuilding/probuilder
# 28/01/2025 04:22:24 p. m.

mtllib ./Sword.mtl
o Sword

g Cube
v -0.03141689 0.09416246 0.03141665
v -0.03141689 0.09416246 -0.03141713
v -0.03141689 0.1884131 0.03141665
v -0.03141689 0.1884131 -0.03141713
v 0.03141689 0.09416246 -0.03141713
v 0.03141689 0.09416246 0.03141665
v 0.03141689 0.1884131 -0.03141713
v 0.03141689 0.1884131 0.03141665
v 0.05029964 0.06274557 0.05029941
v 0.05029964 0.06274557 -0.05030012
v -0.05029964 0.06274557 -0.05030012
v -0.05029964 0.06274557 0.05029941
v 0.003173113 -8.821487E-05 0.003172874
v 0.003173113 -8.821487E-05 -0.003173351
v -0.003173113 -8.821487E-05 -0.003173351
v -0.003173113 -8.821487E-05 0.003172874
v 0.03141689 0.2198298 -0.03141713
v 0.03141689 0.2198298 0.03141665
v -0.03141689 0.2198298 0.03141665
v -0.03141689 0.2198298 -0.03141713
v -0.01429868 0.09416246 0.03141665
v -0.01429868 0.1884131 0.03141665
v -0.01429868 0.09416246 -0.03141713
v -0.01429868 0.1884131 -0.03141713
v -0.01429868 0.2198298 0.03141665
v -0.01429868 0.2198298 -0.03141713
v -0.01429868 -8.821487E-05 -0.003173351
v -0.01429868 -8.821487E-05 0.003172874
v -0.01429868 0.06274557 -0.05030012
v -0.01429868 0.06274557 0.05029941
v -0.01429868 0.1884129 0.09425044
v -0.03141689 0.1884129 0.09425044
v -0.03141689 0.2198298 0.09425044
v -0.01429868 0.2198298 0.09425044
v -0.03141689 0.1884129 -0.09425068
v -0.01429868 0.1884129 -0.09425068
v -0.01429868 0.2198298 -0.09425068
v -0.03141689 0.2198298 -0.09425068
v 0.0161767 0.09416246 0.03141665
v 0.0161767 0.1884131 0.03141665
v 0.0161767 0.1884131 -0.03141713
v 0.0161767 0.09416246 -0.03141713
v -0.0008187294 0.9260796 -0.00381875
v 0.002696753 0.9260796 -0.00381875
v 0.002696753 0.9260796 0.003818274
v -0.0008187294 0.9260796 0.003818274
v 0.0161767 0.2198298 -0.03141713
v 0.0161767 0.2198298 0.03141665
v 0.002054811 -8.821487E-05 0.003172874
v 0.002054811 -8.821487E-05 -0.003173351
v 0.0256182 0.06274557 -0.05030012
v 0.0256182 0.06274557 0.05029941
v 0.03141689 0.1884129 0.09425044
v 0.0161767 0.1884129 0.09425044
v 0.0161767 0.2198298 0.09425044
v 0.03141689 0.2198298 0.09425044
v 0.03141689 0.2198298 -0.09425068
v 0.0161767 0.2198298 -0.09425068
v 0.0161767 0.1884129 -0.09425068
v 0.03141689 0.1884129 -0.09425068
v 0.03141689 0.1884129 0.08181548
v 0.03141689 0.2198298 0.08181548
v -0.03141689 0.2198298 0.08181548
v -0.03141689 0.1884129 0.08181548
v -0.01429868 0.1884129 0.08181548
v 6.210804E-05 0.2198298 0.08181548
v 0.0161767 0.1884129 0.08181548
v 0.00104022 0.9260796 0.009943724
v 0.0008379221 0.9260796 0.009943724
v 0.001816034 0.2198298 0.08181548
v -0.03141689 0.1884129 -0.0783875
v -0.03141689 0.2198298 -0.0783875
v 0.03141689 0.2198298 -0.0783875
v 0.03141689 0.1884129 -0.0783875
v -0.01429868 0.1884129 -0.0783875
v 6.210804E-05 0.2198298 -0.0783875
v 0.0161767 0.1884129 -0.0783875
v 0.001816034 0.2198298 -0.0783875
v 0.00104022 0.9260796 -0.009527445
v 0.0008379221 0.9260796 -0.009527445
v 6.210804E-05 0.8102809 -0.0783875
v 0.001816034 0.8102809 -0.0783875
v 6.210804E-05 0.8102809 0.08181548
v -0.01429868 0.8102809 0.03141665
v 0.0161767 0.8102809 0.03141665
v 0.001816034 0.8102809 0.08181548
v 0.0161767 0.8102809 -0.03141713
v -0.01429868 0.8102809 -0.03141713

vt 0.5000023 0
vt 1.192093E-07 0
vt 0.5000023 0.750003
vt 1.192093E-07 0.750003
vt -0.5000023 0
vt -0.5000023 0.750003
vt -0.6502633 -0.2916827
vt 0.1502614 -0.2916827
vt 1.192093E-07 -0.2575769
vt 0.5000023 -0.2575769
vt -0.1502614 -0.5492597
vt 0.6502633 -0.5492597
vt -0.6502633 -0.1098408
vt 0.1502614 -0.1098408
vt -0.2752509 -0.7348496
vt -0.224751 -0.7348496
vt -0.1502614 0.190166
vt 0.6502633 0.190166
vt 0.224751 -0.4348428
vt 0.2752509 -0.4348428
vt 0 1.000004
vt -0.5000024 1.000004
vt 0.5000024 1.000004
vt -0.3637832 1.110228E-17
vt -0.3637832 0.750003
vt 0.3637831 -2.977884E-24
vt 0.3637831 0.750003
vt 0.3637831 0.5000024
vt 0.5000021 0.5000024
vt -0.3637786 0.224751
vt -0.2752466 0.224751
vt -0.2752466 0.2752509
vt -0.3637786 0.2752509
vt 0.6502631 -0.2916829
vt 0.3637832 -0.291683
vt -0.5000021 -0.2575772
vt -0.3637829 -0.2575772
vt -0.3637829 -0.5492601
vt -0.6502628 -0.5492601
vt 0.3637829 -0.10984
vt 0.6502628 -0.1098396
vt 0.2752515 -0.734849
vt 0.3637835 -0.7348489
vt -0.6502635 0.1901663
vt -0.3637836 0.1901664
vt -0.3637833 -0.4348426
vt -0.2752514 -0.4348426
vt -0.3637831 1.000004
vt 0.363783 1.000004
vt -0.121274 1.110228E-17
vt -0.121274 0.750003
vt 0.121274 0.750003
vt 0.121274 -2.977884E-24
vt 0.2565166 0.2196143
vt 0.228542 0.2196143
vt 0.228542 0.2803863
vt 0.2565166 0.2803863
vt 2.384186E-07 0.5000024
vt 0.121274 0.5000024
vt -0.233645 0.2752509
vt -0.233645 0.224751
vt -0.2247467 0.2752509
vt -0.2247467 0.224751
vt 0.04614359 -0.2916831
vt -0.1502606 -0.2916831
vt 0.1502609 -0.5492599
vt -0.0461433 -0.54926
vt -0.1212738 -0.2575772
vt 0.2247516 -0.7348491
vt -0.1502609 -0.1098404
vt 0.04614327 -0.1098403
vt 0.2336499 -0.734849
vt -0.2247514 -0.4348426
vt -0.2336497 -0.4348425
vt -0.04614401 0.1901665
vt 0.1502602 0.1901667
vt -0.121274 1.000004
vt 0.1212738 1.000004
vt -0.901053 0.7500029
vt -0.901053 1.000004
vt -1.000004 0.7500028
vt -1.000004 1.000004
vt 0.9010529 1.000004
vt 0.9010529 0.7500029
vt 1.000004 1.000004
vt 1.000004 0.7500028
vt -0.3637831 0.9010524
vt -0.5000021 0.9010524
vt -0.3637831 0.5000018
vt -0.5000023 0.5000017
vt 0.2495072 0.9010521
vt 0.5000021 0.9010521
vt -2.384186E-07 0.9010524
vt -0.121274 0.9010524
vt -0.121274 0.5000018
vt 0.2417239 0.3291298
vt 0.2433337 0.3291298
vt 0.2355502 0.9010521
vt -0.3737694 0.7500028
vt -0.3737694 1.000004
vt 0.3737693 1.000004
vt 0.3737693 0.7500029
vt 0.4999999 0.7500028
vt -0.5000023 -0.4999994
vt -0.5000021 -0.3737688
vt -0.3637831 -0.3737688
vt -0.3637831 -0.4999995
vt 0.5000021 -0.4999993
vt 0.3637831 -0.4999993
vt 0.2495072 -0.3737686
vt 0.5000021 -0.3737686
vt -0.121274 -0.3737688
vt -0.121274 -0.4999995
vt -2.384186E-07 -0.3737688
vt -1.192093E-07 -0.4999994
vt 0.121274 -0.4999993
vt 0.2355502 -0.3737686
vt 0.2417239 0.1741872
vt 0.2433337 0.1741872
vt 0.2495072 1.000004
vt 0.2355502 1.000004
vt 0.2495073 5.698542
vt 0.2355503 5.698542
vt 0.7981873 1.000004
vt 0.3811734 1.000004
vt 0.7981864 5.698542
vt 0.3811724 5.698542
vt -0.5140955 1.000004
vt -0.9311094 1.000004
vt -0.5140948 5.698542
vt -0.9311087 5.698542
vt -0.2355502 1.000004
vt -0.2495072 1.000004
vt -0.2355503 5.698542
vt -0.2495073 5.698542
vt 8.740433E-07 5.698542
vt -0.5000015 5.698542
vt 0.5000015 5.698542
vt 0.4263065 1.000004
vt 0.03545806 1.000004
vt 0.4263067 5.698542
vt 0.03545912 5.698542
vt 0.1063626 1.000004
vt -0.2844858 1.000004
vt 0.106362 5.698542
vt -0.2844859 5.698542
vt 0.2495073 4.706937
vt 0.2355503 4.706937
vt 0.2433337 5.779023
vt 0.2417239 5.779023
vt 0.4263066 5.62872
vt 0.03545901 5.62872
vt -0.09590069 6.565046
vt -0.1431969 6.565166
vt 0.1063627 5.545462
vt -0.2844852 5.545462
vt 0.2850182 6.481908
vt 0.2377217 6.481788
vt 8.740433E-07 5.674342
vt -0.5000015 5.674342
vt -0.2196143 6.602037
vt -0.2803863 6.602037
vt 0.5000015 5.618256
vt -8.740433E-07 5.618256
vt 0.2803863 6.545951
vt 0.2196143 6.545951
vt 0.7981858 5.527139
vt 0.3811717 5.527139
vt 0.2498486 6.462859
vt 0.1993584 6.462976
vt -0.5140949 5.60751
vt -0.9311087 5.60751
vt -0.3322812 6.543348
vt -0.3827711 6.543229
vt -0.2355503 4.366605
vt -0.2495073 4.366605
vt -0.2417239 5.451136
vt -0.2433337 5.451136

vn -1 0 0
vn 1 0 0
vn 0.8571001 0.51515 0
vn -0.8571001 0.51515 0
vn 0.7999927 -0.6000097 0
vn -0.7999927 -0.6000097 0
vn 0 0 1
vn 0 0 -1
vn 0 1 0
vn 0 0.5151547 -0.8570972
vn 0 0.51515 0.8571001
vn 0 0 0
vn 0 -0.6000116 -0.7999913
vn 0 0.6000116 0.7999913
vn 0 -0.6000097 0.7999927
vn 0 0.6000097 -0.7999927
vn 0 -1 0
vn 0 0.5 0
vn -0.9617197 0 0.2740352
vn 0.9617203 0 0.274033
vn 0.9563026 0 -0.2923788
vn -0.9563019 0 -0.2923811
vn 0 0.5111125 -0.8595138
vn 0.9411325 0.1774112 -0.2877408
vn 0.9433094 0.1764309 -0.2810496
vn 0.9454864 0.1754507 -0.2743585
vn -0.9410111 0.1781108 -0.287706
vn -0.9437326 0.1738893 -0.2811825
vn -0.946454 0.1696678 -0.274659
vn 0.9932926 0.1156276 0
vn -0.9932926 0.1156276 0
vn -0.9470767 0.1738384 0.2698628
vn -0.9490054 0.172915 0.2635233
vn -0.950934 0.1719915 0.2571837
vn 0.9469576 0.1745418 0.2698266
vn 0.9494315 0.1703474 0.2636273
vn 0.9519055 0.166153 0.257428
vn 0 0.5273454 0.849651

usemtl ProBuilderDefault
f 3/3/1 4/4/1 2/2/1 1/1/1
f 7/4/2 8/6/2 6/5/2 5/2/2
f 9/7/3 10/8/3 5/2/3 6/5/3
f 11/11/4 12/12/4 1/10/4 2/9/4
f 13/15/5 14/16/5 10/14/5 9/13/5
f 15/19/6 16/20/6 12/18/6 11/17/6
f 17/21/2 18/22/2 8/6/2 7/4/2
f 19/23/1 20/21/1 4/4/1 3/3/1
f 22/25/7 3/6/7 1/5/7 21/24/7
f 23/26/8 2/1/8 4/3/8 24/27/8
f 19/29/9 25/28/9 26/26/9 20/1/9
f 15/31/9 27/30/9 28/33/9 16/32/9
f 23/26/10 29/35/10 11/34/10 2/1/10
f 1/36/11 12/39/11 30/38/11 21/37/11
f 29/40/12 27/43/14 15/42/12 11/41/13
f 12/44/15 16/47/12 28/46/16 30/45/12
f 34/48/7 33/22/7 32/6/7 31/25/7
f 37/49/8 36/27/8 35/3/8 38/23/8
f 8/4/7 40/51/7 39/50/7 6/2/7
f 40/51/7 22/25/7 21/24/7 39/50/7
f 5/2/8 42/53/8 41/52/8 7/4/8
f 42/53/8 23/26/8 24/27/8 41/52/8
f 46/57/9 45/56/9 44/55/9 43/54/9
f 48/59/9 18/58/9 17/2/9 47/53/9
f 27/30/17 50/61/17 49/60/17 28/33/17
f 14/63/12 13/62/12 49/60/12 50/61/12
f 51/64/10 29/35/10 23/26/10 42/53/10
f 5/2/10 10/65/10 51/64/10 42/53/10
f 6/9/11 39/68/11 52/67/11 9/66/11
f 21/37/11 30/38/11 52/67/11 39/68/11
f 51/71/13 10/70/13 14/69/13 50/72/13
f 27/43/13 29/40/13 51/71/13 50/72/13
f 49/74/15 13/73/15 9/76/15 52/75/15
f 30/45/15 28/46/15 49/74/15 52/75/15
f 56/21/7 55/77/7 54/51/7 53/4/7
f 55/77/7 34/48/7 31/25/7 54/51/7
f 57/21/8 60/4/8 59/52/8 58/78/8
f 59/52/8 36/27/8 37/49/8 58/78/8
f 62/80/2 61/79/2 8/6/2 18/22/2
f 56/82/2 53/81/2 61/79/2 62/80/2
f 19/23/1 3/3/1 64/84/1 63/83/1
f 63/83/1 64/84/1 32/86/1 33/85/1
f 64/88/17 65/87/17 31/48/17 32/22/17
f 64/88/17 3/90/17 22/89/17 65/87/17
f 63/92/9 66/91/9 25/28/9 19/29/9
f 33/23/9 34/49/9 66/91/9 63/92/9
f 54/77/17 67/94/17 61/93/17 53/21/17
f 67/94/17 40/95/17 8/58/17 61/93/17
f 65/87/17 67/94/17 54/77/17 31/48/17
f 22/89/17 40/95/17 67/94/17 65/87/17
f 69/97/18 68/96/12 45/56/18 46/57/9
f 34/49/9 55/78/9 70/98/9 66/91/9
f 70/98/9 62/93/9 18/58/9 48/59/9
f 55/78/9 56/21/9 62/93/9 70/98/9
f 20/21/1 72/100/1 71/99/1 4/4/1
f 72/100/1 38/22/1 35/6/1 71/99/1
f 7/4/2 74/102/2 73/101/2 17/21/2
f 74/102/2 60/103/2 57/23/2 73/101/2
f 36/107/17 75/106/17 71/105/17 35/104/17
f 75/106/17 24/24/17 4/5/17 71/105/17
f 72/111/9 76/110/9 37/109/9 38/108/9
f 20/1/9 26/26/9 76/110/9 72/111/9
f 77/112/17 41/50/17 24/24/17 75/106/17
f 59/113/17 77/112/17 75/106/17 36/107/17
f 41/50/17 77/112/17 74/114/17 7/2/17
f 77/112/17 59/113/17 60/115/17 74/114/17
f 76/110/9 78/117/9 58/116/9 37/109/9
f 43/54/9 44/55/18 79/118/12 80/119/18
f 78/117/9 73/114/9 57/115/9 58/116/9
f 47/53/9 17/2/9 73/114/9 78/117/9
f 81/122/8 82/123/8 78/121/8 76/120/8
f 83/126/19 84/127/19 25/125/19 66/124/19
f 85/130/20 86/131/20 70/129/20 48/128/20
f 86/134/7 83/135/7 66/133/7 70/132/7
f 87/136/2 85/137/2 48/22/2 47/21/2
f 84/138/1 88/136/1 26/21/1 25/23/1
f 82/141/21 87/142/21 47/140/21 78/139/21
f 88/145/22 81/146/22 76/144/22 26/143/22
f 80/149/23 79/150/23 82/148/23 81/147/23
f 79/153/25 44/154/26 87/152/25 82/151/24
f 43/157/28 80/158/29 81/156/28 88/155/27
f 44/161/30 45/162/30 85/160/30 87/159/30
f 46/165/31 43/166/31 88/164/31 84/163/31
f 69/169/33 46/170/34 84/168/33 83/167/32
f 45/173/36 68/174/37 86/172/36 85/171/35
f 68/177/38 69/178/38 83/176/38 86/175/38

